<svg width="191" height="100" viewBox="0 0 191 100" fill="none" xmlns="http://www.w3.org/2000/svg">
<path fill-rule="evenodd" clip-rule="evenodd" d="M39.7865 0.315577C28.2714 -1.68428 17.3154 6.02934 15.3156 17.5444C15.2563 17.8857 15.2056 18.2265 15.1632 18.5666H15.163V18.5681C14.942 20.3433 14.9493 22.0991 15.163 23.8045V42.268V63.43H36.325H45.6363H153.986C158.242 63.43 162.205 62.1736 165.523 60.0113C170.691 56.9691 174.54 51.7613 175.647 45.3896C177.647 33.8745 169.933 22.9185 158.418 20.9186L39.7865 0.315577Z" fill="#62E08C"/>
<path fill-rule="evenodd" clip-rule="evenodd" d="M165.176 12.8194C176.691 10.8196 187.647 18.5332 189.647 30.0483C189.706 30.3896 189.757 30.7304 189.799 31.0704H189.799V31.0719C190.02 32.8471 190.013 34.603 189.799 36.3084V54.7719V75.9339H168.637H159.326H50.9767C46.7206 75.9339 42.7579 74.6774 39.4393 72.5151C34.271 69.4729 30.4221 64.2651 29.3156 57.8934C27.3157 46.3783 35.0293 35.4223 46.5444 33.4225L165.176 12.8194Z" fill="#35C164"/>
<path fill-rule="evenodd" clip-rule="evenodd" d="M29.2819 25.4389C15.6784 23.0764 2.73536 32.1889 0.37281 45.7924C0.302793 46.1956 0.242854 46.5982 0.192813 46.9999C0.192806 47 0.192756 47 0.192697 47V47C0.192632 47 0.19258 47.0001 0.19258 47.0001V47.0018C-0.0684854 49.0989 -0.059865 51.1732 0.19258 53.1879V75V75C0.19258 88.8071 11.3855 100 25.1926 100V100H36.1926H164.193C169.221 100 173.902 98.5157 177.822 95.9612C183.928 92.3673 188.475 86.215 189.782 78.6876C192.145 65.0842 183.032 52.1411 169.429 49.7786L29.2819 25.4389Z" fill="#1F7C3E"/>
<rect x="74" y="85.4264" width="60" height="20" rx="10" transform="rotate(-45 74 85.4264)" fill="#ABD1B5"/>
<rect x="74.1421" y="57.1422" width="40" height="20" rx="10" transform="rotate(45 74.1421 57.1422)" fill="#ABD1B5"/>
<path d="M81.0711 92.4975C77.1658 88.5922 77.1658 82.2606 81.0711 78.3553L88.1421 71.2843L95.2132 78.3553C99.1184 82.2606 99.1184 88.5922 95.2132 92.4975C91.308 96.4027 84.9763 96.4027 81.0711 92.4975Z" fill="#79B791"/>
</svg>
